<svg version="1.1" id="Layer_2" xmlns="http://www.w3.org/2000/svg" xmlns:xlink="http://www.w3.org/1999/xlink" x="0px" y="0px"
	 viewBox="0 0 6000 4000" style="enable-background:new 0 0 6000 4000;" xml:space="preserve">
<style type="text/css">
	.st0{display:none;fill:#999999;}
	.st1{fill:#E6E6E6;stroke:#262626;stroke-width:2;stroke-miterlimit:10;}
</style>
<path class="st1" d="M2474.3,633.93l11.55,15.4v23.1l-23.1,26.95v26.95l-19.25,38.49l3.85,26.95l-11.55,38.49l-15.4,15.4v7.7h23.1
	l15.4,11.55v19.25l-42.34,23.1l-7.7,23.1h-19.25l-26.95,7.7l-26.95,57.74l-50.04,53.89l15.4,34.65l-3.85,34.65l21.94,12.36
	l37.65,21.17l2,1.12l11.55,38.49l-23.1,23.1l-3.85,19.25l-26.95,19.25l-23.1,19.25v19.25l15.4,11.55v23.1h-30.8l-15.4-15.4h-23.1
	l-24.25,33.34l-6.54,9.01l-31.87-3.54l-2.77-0.31l3.85-19.25l-15.4-7.7l-23.17,2.58l13.55-29.53l18.86-41.04l-5.89-41.34l20.67-26.6
	l20.63,26.6l32.49-17.75l8.85-32.45l-50.2-20.67l33.11-40.19l8.24-10.01v-26.6l-17.71-20.67l17.71-14.74l-2.93-14.78l-8.89-26.56
	l41.34-47.23l-11.82-41.34l50.24-82.69l-2.96-29.53l29.53-26.6l41.34-123.99c0,0,35.42-56.13,38.38-56.13c2.96,0,0-32.49,0-32.49
	l-11.82-17.71l2.96-20.67l-20.67-20.67l5.89-38.38l47.27-62.01l15.36-1.27l13.74,22.13l-7.7,26.95l19.25,11.55l15.4,46.19
	l-3.85,23.1l11.55,26.95l-50.04,50.04l3.85,30.8L2474.3,633.93z"/>

</svg>