<?xml version="1.0" encoding="utf-8"?>
<!-- Generator: Adobe Illustrator 24.3.0, SVG Export Plug-In . SVG Version: 6.00 Build 0)  -->
<svg version="1.1" id="Layer_2" xmlns="http://www.w3.org/2000/svg" xmlns:xlink="http://www.w3.org/1999/xlink" x="0px" y="0px"
	 viewBox="0 0 6000 4000" style="enable-background:new 0 0 6000 4000;" xml:space="preserve">
<style type="text/css">
	.st0{display:none;fill:#999999;}
	.st1{fill:#E6E6E6;stroke:#262626;stroke-width:2;stroke-miterlimit:10;}
</style>
<path class="st0" d="M3710.31,1598.58l-5.37,6.13c0,0,2.31,9.98,1.54,12.28s-6.91,9.2-6.91,9.2l-9.97,0.77l-5.37,6.14l6.14,6.13
	l13.81-1.53l0.76,9.97l-12.27,5.37c0,0-8.44,9.97-7.67,11.51c0.77,1.53,3.84,4.6,3.84,4.6l-4.61,3.83l7.67,6.14l0.77,3.84h6.9
	l-0.76,7.67l11.5,8.43l-6.9,6.14l-4.6-2.3l-0.77,5.37l5.37,6.9l-4.6,2.3v6.91l-8.44,2.3c0,0,0.77,29.91,2.3,31.45
	c1.54,1.53,4.6,3.07,4.6,3.07l-0.76,12.27l-12.28,10.74l-6.13,12.27l-5.37-2.3l-2.3,6.91h-10.74l-4.61,6.13l-6.9-1.53l-3.83,6.13
	l-9.98-2.3l-6.9,22.25h-14.58l-6.75-11.58l-3.98-6.83l3.06-6.91l-4.6-5.36l-7.67,2.3l-12.27-8.44l-2.75,0.15l-11.06,0.62
	c0,0-6.9,4.6-6.9,3.83s-6.14-4.6-6.14-4.6s-3.84,4.6-4.6,4.6c-0.77,0-9.97-2.3-9.97-2.3l-5.37,11.51c0,0-5.37,0.76-6.14,0
	c-0.77-0.77-7.67-6.91-7.67-6.91l-5.37,6.91l-6.9-3.84h-14.58l-10.74-6.9l-6.9,6.9l-5.99-2.18l-2.45-0.89l-4.6,6.14l-3.07-4.6h-5.37
	l-4.6,6.9H3438l-3.07-3.84l-1.53,1.54h-6.9v3.83l-8.44-0.76l-5.37-5.37l-3.07,1.53h-8.44l-8.44-4.6l-3.06-1.53l-0.77,3.06
	l-3.07-0.76v-9.21l-6.9-0.77l-2.3,1.54l-0.77,4.6h-6.14l-3.07-3.83h-0.01l-5.36-0.77c0,0-3.83,5.37-4.6,5.37h-5.37l-5.37,5.37
	l-6.13-3.84l-3.84,6.14h-25.31l-6.14,5.37l-0.53-0.23l-4.84-2.07l-4.6,0.76l-0.77,3.07l-6.14-0.76l-0.76,3.83l-8.44,1.54l-4.6,5.36
	v3.07l-7.45,5.21l-0.22,0.16l-8.44-0.76l-2.12,6.36l-0.18,0.54l2.3,6.14c0,0-6.14,6.13-6.91,7.67c-0.76,1.53,1.54,13.8,1.54,13.8
	l-7.67,2.31c0,0-15.34,14.57-15.34,15.34c0,0.76-0.77,9.97-0.77,9.97l-7.67,9.97v6.14l-21.48,6.9l-7.67,11.51l9.97,8.44l-6.14,2.3
	l-3.83,3.83l-7.67,2.3l-16.88-0.76l-7.67-3.84l-6.13,8.44l5.37,4.6l-2.31,39.12l0.06,0.16l3.01,7.51l-0.76,9.97l7.67,12.28
	l2.45,1.56l5.98,3.81c0,0,4.61,10.74,5.37,11.5c0.77,0.77,6.91,3.07,6.91,3.07l-7.67,4.6l4.6,13.04l-1.54,9.21l5.37,9.2l-5.64,8.47
	l-0.49,0.74l0.76,9.97l6.14,5.37c0,0,7.67-1.53,7.67-0.77c0,0.36,2.39,2.29,4.98,4.3c3.11,2.4,6.53,4.91,6.53,4.91l3.83,9.97
	l9.21,5.37c0,0-1.54,5.37-0.77,5.37s11.51,9.97,11.51,9.97c0,0.02,0,3.84-0.77,4.6c-0.77,0.77-9.97,6.91-9.97,6.91l-3.07,32.98
	l10.74,16.88v7.46c0,0.14,0.03,0.27,0.09,0.39l2.21,4.42l-25.31-23.78l4.6-3.07l-9.97-9.2l-6.14,4.6v18.41l3.84,6.9l-10.74-6.13
	l0.76-5.37l-8.43-9.97h-13.04l-3.84-5.37h-15.34l-2.52-11.99l-0.55-2.59l8.44-1.53l6.9-8.44l-3.6-5.05l-0.23-0.32
	c0,0-3.84,6.9-4.61,6.9c-0.76,0-6.13-3.83-6.13-3.83l2.3-4.6l-6.14-8.44l-3.07,3.07v3.83l6.91,12.28h-5.37l-31.45-29.92l-7.67-6.9
	l-11.51-0.77l-7.67-9.97l-7.44-8.12l-1-1.09l-12.05-7.85l-5.59-3.65l-7.67,1.53l-9.21,9.21h-13.04l-1.53,3.83h-8.44l-1.53-2.3h-9.21
	l-2.3,7.67l-6.14-0.77l-6.9-6.13l-10.73-3.58l-5.38-1.79l-23.78-0.77l-4.6-2.3l-6.9,1.53l-0.77,2.3l-11.15,1.49l-0.36,0.05
	l-2.3,9.97l-2.3-1.53l-4.6-0.77l0.77-7.67l-12.28-1.54l0.77-16.87l6.9-3.84l1.54-13.04l-8.44-8.44l1.53-9.97l9.21-6.13l-0.77-7.67
	l-5.37-6.91v-6.9l8.44-14.58l-4.6-12.27l-0.77-6.14l3.07-4.6l8.44-4.6l0.5-10.97l0.09-2.05l0.17-3.86l-1.53-4.6l-3.65,3.04
	l-0.95,0.8l-7.67-0.77l-6.26-4.86l-0.65-0.51h-13.04l-2.3-0.77h-12.27l-11.51-5.37h-5.37l-3.83,3.84l-8.44,0.76l-1.54,1.54h-10.73
	l-1.82,0.73l-2.02,0.8h-18.41l-3.07-1.53h-4.6l-1.53,4.6l-6.14,0.77l-6.14,1.53l-6.13,2.3l-6.56,1.79l-1.88,0.52l-3.55,3.54
	l-1.82,1.82l-3.84,0.77l-3.83,6.14l-2.42,0.3l-3.72,0.47v6.9l-6.14,3.07l0.07,0.58l0.7,6.32l10.74,14.58l6.14,2.3
	c0,0-1.54,13.04-0.77,13.8c0.77,0.77,6.9,8.44,6.9,8.44l-9.2,12.28l-0.77,9.97l-4.22,9.62l-9.59,21.83l1.07,11.2l0.51,4.22
	l5.33,43.64v23.01l5.37,8.44l-9.97,7.67l-3.07,10.74l-17.65,16.11l-4.6,14.58l3.84,9.97l-5.37,3.83l-0.77,9.98
	c0,0-10.74,12.27-12.27,13.04c-1.54,0.76-27.62,59.83-27.62,59.83l1.54,9.97c0,0-1.54,8.44-1.54,9.2c0,0.77-12.27,9.98-12.27,9.98
	v6.13l3.07,3.07l-0.5,12.4l-0.27,6.78l-2.3,6.9l3.83,6.91l-2.3,4.6l-6.13-0.77l-3.84,3.84l-3.83,17.64l-6.91,12.27h-6.9l-4.6,6.14
	l-3.07,16.11l-12.28,6.9l6.91,6.91v3.83l5.37,5.37c0,0,0,7.67-0.77,7.67s-8.44,0-8.44,0l-3.07-3.07l-9.97,0.77v8.44l-2.3,3.07
	l3.84,6.13h4.6l6.14,6.91l-12.28,19.17v7.67l6.14,4.61l-4.6,11.5l1.53,24.55l-3.07,2.3v11.51l2.37,7.52l2.23,7.05l9.21,15.34
	l0.77,13.81l12.27,13.81c0,0-10.74,5.37-11.51,7.67c-0.76,2.3-4.6,9.2-4.6,9.2l5.37,9.97l3.84,3.07l14.57,2.3l0.77,6.14l8.44-6.14
	c0,0,6.13,2.31,7.67,3.07c1.53,0.77,9.97-5.37,9.97-5.37l2.3-8.43l5.37-0.77l3.83,3.07l3.07-0.88l2.3-0.66l9.21-6.9h15.34l2.45,1.47
	l1.39,0.83h6.9l6.9,13.04l0.77,13.04l6.9,13.04l-0.76,30.68l2.3,3.07l3.07,24.55l0.76,16.87l12.28,11.51l9.2,20.71l9.97,6.14h6.14
	l2.3-13.81l6.14,7.67l8.44,29.15l5.37,30.68l3.5,21.01l1.09,6.57l1.54,9.24l13.81,52.93l9.2,26.85l7.68,17.64l3.83,4.6h3.07
	l6.14,6.14l8.43,14.58l11.51,16.87l13.04,10.74h7.67l10.74,8.44c0,0,6.58,3.46,11.13,5.97c1.02,0.57,1.94,1.08,2.66,1.5
	c0.85,0.48,1.42,0.84,1.55,0.97c0.47,0.46,9.91,0.36,17.29,0.22c4.83-0.1,8.79-0.22,8.79-0.22l10.74-7.67h6.91l9.2,4.6l3.07-4.6
	h7.67l3.07,2.3l13.8,1.53l9.98,3.84l12.27,22.24l3.74,5.9l10.83,17.11l4.96,8.27l4.25,7.08l8.44,6.9l5.01,2.5l4.19,2.1l6.14,8.44
	l10.74,9.97h3.83l4.61,4.6l8.43,6.14l-2.3,5.37l0.77,7.67l-1.53,9.97c0,0-4.61,6.91-6.14,6.91c-1.54,0-12.27,7.67-13.04,9.2
	c-0.77,1.54-5.37,14.58-5.37,14.58l3.83,6.13c0,0-2.3,6.91-4.6,6.91s-6.13-0.77-6.13,0c0,0.76-0.77,8.43-1.54,8.43s-7.67-0.76-6.9,0
	c0.76,0.77-0.77,9.21-0.77,9.21l-11.51-10.74l-5.37,0.77l-2.3,2.3l-0.76,3.83c0,0-3.07,0.77-3.07,0c0-0.76,0.77-4.6,0-4.6
	c-0.77,0-4.6-6.14-4.6-6.14l-0.77-9.2l-6.14-0.77v-5.37l-2.69-1.68l-3.44-2.15l-9.98,4.6l-1.27,1.45l-4.1,4.69l-16.87,0.76
	l-7.67,10.74l-13.81-0.76c0,0,0,3.83,0,4.6s-1.53,1.53-1.53,1.53v13.81h-3.84l-1.53,1.53l-0.77,3.84h-4.6l-1.54,2.3h-1.53l-4.6,5.37
	l-1.54-7.67l-10.74-15.34l-6.13,0.76l-6.91-7.67v-4.6l5.37-3.07l0.77-11.5l10.74-0.77l6.13-11.51l-3.83-3.06v-12.28h2.3l0.77-6.9
	l-9.21-4.6l-0.76-3.07l6.13-3.84l4.6-2.3l-2.3-9.97l-6.13-1.53h-3.84l-5.37,3.83l-8.44-6.9l-4.6,6.9h-6.9l-3.84-3.83l-3.83,3.83
	l-6.14-32.98l-6.14-3.84h-3.83l-1.97-5.9l-0.33-1l-5.37,6.13l-7.67,3.84l-3.84-0.77l-10.74-6.9l-9.97-0.77l-3.07-4.6h-15.34
	l-4.6-1.54l-11.51-12.27l3.84-2.3l-0.77-8.44l-3.84-0.76l-1.53-6.91h-6.14c0,0-0.76,5.37-1.53,4.6c-0.29-0.29-1.35-1.35-2.56-2.56
	c-1.98-1.97-4.34-4.34-4.34-4.34l-4.05,3.54l-2.09,1.83l2.3,2.3v6.14l-2.3,3.07l3.07,8.43l-3.84,0.77l-0.76,16.88l-3.07,12.27
	l-5.37-19.94l2.3-4.61l-1.54-0.76h-4.6l-3.83,2.3l-6.14-3.07l-2.3-5.37v-6.14l-6.9-5.37l-4.61-0.76l-3.07-9.98l-7.67-0.76
	l-14.57-14.58l-3.07-6.9l-6.9-1.53l-4.61-8.44l-3.83-22.25l7.24-7.24l5.03-5.03l-11.5-1.54l-1.2-2.05l-6.47-10.99l-0.77,6.91
	l-5.37,3.07l-11.51-17.65c0,0-3.07-6.13-3.83-6.13c-0.77,0-12.28-1.54-12.28-1.54s-10.73-11.5-11.5-12.27
	c-0.77-0.77-2.3-16.88-2.3-16.88l-7.67-9.97v-8.44l-2.31-10.74l-0.82-1.14l-3.01-4.22l-5.94-1.19l-1.73-0.35l-9.97-9.2l-0.77-8.44
	l-3.07,1.53c0,0-3.83,11.51-4.6,12.28c-0.77,0.76-9.21,0-9.97-0.77c-0.77-0.77-3.84-12.27-3.07-13.04c0.06-0.06,0.15-0.21,0.28-0.41
	l-3.35-8.03c0,0,0-4.6,0-5.37s3.84,0,3.84,0v6.14l2.35,1.76c2.13-4.33,4.55-9.43,4.55-9.43l3.07-9.98l-3.07-1.53l-4.6,9.21
	l-7.67-6.14l-6.91-0.77l1.54-13.81l-9.98-3.06l-9.2,6.13l-5.37-5.37l-6.14-0.76l-3.83-5.37v-21.48l-5.37-5.37l-5.37-15.34l-4.6,6.9
	l-5.37-0.77v-9.97l6.9-5.37l-5.37-4.6h-6.14l-5.37,8.44l-1.57,0.47l-21.44,6.43l3.84,4.6l-0.77,6.14l3.07,6.14l-6.14,9.2l-5.37-1.53
	l-5.37,3.07l-3.83-8.44l-10.74-3.84v-13.8l-11.51-39.89l6.91,5.37l1.53-2.3l-5.37-8.44v-14.58l7.67-32.98l-3.83-8.44l4.6-16.87
	l11.51,8.43h5.36v-6.13l-8.43-6.14c0,0,6.13-9.97,5.37-11.51c-0.77-1.53-6.14-9.97-6.14-9.97l1.53-6.9l7.67-3.07l-3.83-9.97
	l4.62-10.05l3.52-7.67l4.9-10.66l-1.53-10.74l5.37-6.91l5.36,6.91l8.44-4.61l2.3-8.43l-13.04-5.37l8.6-10.44l2.14-2.6v-6.91
	l-4.6-5.37l4.6-3.83l-0.76-3.84l-2.31-6.9l10.74-12.27l-3.07-10.74l13.05-21.48l-0.77-7.67l7.67-6.91l10.74-32.21
	c0,0,9.2-14.58,9.97-14.58s0-8.44,0-8.44l-3.07-4.6l0.77-5.37l-5.37-5.37l1.53-9.97l12.28-16.11l3.99-0.33l5.21-0.43l1.54-6.91
	l5.37,2.3l9.97-7.67l-3.84-7.67l5.37-12.27l5.37,5.37l6.14-3.84l1.53-7.67l7.91-4.21l3.6-1.92l0.76-6.14l8.44-4.6v-6.14l5.37-5.37
	v-6.9l10.74-10.74l-0.77-8.44l13.81-9.21l-1.53-12.27l8.44-3.07l3.83-9.97v-12.27l6.9-4.6h2.31l0.76,3.06l6.14-1.53l6.14-13.81
	l6.9-3.07v-7.67l1.53-6.9l-6.9-5.37l-0.77-6.14h-3.07v-19.17l-8.43-3.84l-0.77-9.2l6.14-10.74l-0.77-2.3l-15.34,3.06l0.77-5.37
	l3.06-5.37l-3.83-4.6v-6.9l2.3-2.3l-9.21-11.51l1.54-9.97l-6.91-9.97l5.37-7.67l-1.53-5.37v-4.61l-3.07-5.37h-6.13l-2.56-2.76
	l-7.42-7.97h-6.13l-0.77-7.68l-8.44-0.76l-1.53-17.65l-7.67-3.83l1.53-10.74l-5.37-3.07l6.14-4.6v-6.9l-16.11-14.58l5.37-3.07
	v-13.04l-3.07-1.53l4.6-4.6l4.61-0.77l3.83,3.07l3.81-2.29l0.03-0.01l-3.07-6.14l0.76-3.07l2.31-0.77v-3.06l-3.84-1.54v-3.83
	l2.3-4.61l0.05-1.72l0.72-22.82l-3.84-3.07l1.54-9.97l-4.6-4.61l2.3-0.76v-3.07l-2.3-0.77v-22.24l-8.44-6.91l0.76-10.74h-3.06
	v-10.73h-4.61c0,0-1.53-6.14-9.2-7.68c-0.77-2.3-3.84-14.57-3.84-14.57l-6.13-2.3v-9.97l-15.34-3.84v-5.37l-26.09-16.11l-1.53-4.6
	l-19.18-10.74v-8.44l-3.83,0.77l-13.04-29.92l-6.91,1.54v-9.21c0,0-3.06-6.9-19.94-19.17c-6.9-6.14-15.34-24.55-15.34-24.55
	l1.53-5.37l-3.83-3.83v-3.84l2.3-3.07l-2.3-6.9l-3.84-1.54v-3.83l3.84-7.67l-9.21-11.51l5.37-13.81l-2.3-8.43h10.74
	c0,0,4.6-5.37,6.9-7.67v-5.37c0,0,11.51,0.76,16.88,8.43c2.7-1.8,3.55-2.27,3.8-2.37l-5.33-10.67l3.83-6.13h5.37l9.97-3.07
	l9.21,7.67l4.6-4.6v-23.78l-4.85-27.26l-1.29-7.26l0.58-1.69l10.16-29.76h-3.83l-1.54-7.67l4.6-9.97l-8.43-10.74l4.6-6.14l5.37,6.9
	l1.53-4.6l6.14-0.77v-7.67l6.14-4.6l15.34,1.54l3.07,4.6l6.9-5.37l0.77-16.88l9.97-5.37l0.77-8.43l3.83-2.31l-4.6-4.6l1.53-6.9
	l-6.9-6.91l-9.97,0.77l-6.91,13.04l-6.9-0.77l-5.37,14.58l-5.37-0.77l-2.3-13.81l-3.07-1.53l2.3-7.67l-4.6-1.53l4.6-8.44
	l-13.8-16.88l1.53-6.9l-6.14-8.44h-6.9l0.77-8.44l-7.67-4.6l-0.77-6.9l6.14-7.67l-0.77-8.44l6.13-6.91v-6.13l-8.43-6.14l-0.77-6.9
	l-9.97-9.97h-13.04l-6.91-7.68l-0.76-9.2l-30.69-29.92v-13.04h-4.6l-6.9-6.9l0.76-4.6l-9.97-10.74h-4.6l-8.44-6.91l-0.76-5.37
	l-24.55-24.54l0.77-5.37l-3.78-5.36l-5.43-7.68h-4.6l-3.84-11.51c0,0,3.07-6.9,10.74-13.04c0.77-3.83,0.77-7.67,0.77-7.67
	l-5.37-10.74h-3.84v-16.87l-12.27-13.81l5.37-9.21l-3.07-4.6l-9.97-3.83l-2.3,2.3l-1.54,5.37l-6.13,4.6l-9.21-10.74v-13.04
	l-17.64-25.31l1.53-11.51h2.31c0,0,1.53,6.14,2.3,6.9c0.59,0.59,3,0.73,4.08,0.76c0.32,0.01,0.61,0.2,0.76,0.49l5.13,10.26
	c0.77,1.53,4.6,0.77,4.6,0.77l1.54-2.3l4.6,0.76l0.77,3.07l6.13-2.3v-4.6l13.81-2.3v-3.84l3.07-0.77l1.53-2.3l20.71,0.77v-22.25
	l-3.83-3.83l-1.54-28.38l-13.8-9.97l12.27-6.91l0.77-11.5c0,0,3.83-2.31,4.6-2.31s0.77-5.37,1.53-4.6
	c0.77,0.77,10.74-3.83,10.74-3.83l0.77-23.02l-10.74-9.2l5.37-13.81l-3.84-7.67l16.88-17.64l-5.37-6.14v-5.37l4.6-4.6
	c0,0,13.81-0.77,14.58-0.77c0.76,0,0.76-9.2,1.53-9.2s10.74-1.54,10.74-1.54s-3.07-10.74-3.07-11.5c0-0.77,1.54-16.11,1.54-16.11
	l9.2-0.77l3.84,7.67c0,0,3.83-3.83,4.6-3.83s10.74,9.97,11.51,9.97c0.76,0,4.6,0.77,4.6,0.77s0.76,9.2,1.53,9.2h4.6l8.44-4.6
	l24.33,0.74l0.99,0.03l6.9-3.07c0,0,7.67,6.9,8.44,7.67c0.76,0.77,3.83-7.67,3.83-7.67h7.67l14.58-10.74l11.5,4.6l10.74-11.51
	l4.14,3.25l6.6,5.19h6.14c0.77,0,3.07,3.84,3.07,3.84l6.13-0.77l-0.76-6.14l5.37-4.6v-21.48h3.06l-1.53-9.2l3.84-5.37l-1.54-4.6
	l3.84-12.28h10.74l4.6-6.13l46.79,7.67c0,0,10.74-3.84,10.74-4.61c0-0.76,1.53-6.13,1.53-6.13h5.37l3.84-9.97l-2-1.28l-6.44-4.09
	l0.77-7.67l-1.54-1.54l-0.76-6.13l-8.44-6.91v-6.14l3.07,0.77l23.78,10.74l5.37-2.3l6.9,5.37l8.44-6.14h7.67l3.83,3.07l9.98-21.48
	c0,0,9.2,0.77,9.97,0.77c0.76,0,5.37-3.07,5.37-3.07s6.9,7.67,6.9,8.44c0,0.66,4.57,0.75,5.82,0.77c0.21,0,0.4,0.07,0.56,0.2
	l9.73,8.23l0.77,18.41l10.74,3.07l3.83-3.83l-1.53-6.14l7.67-3.07l5.37-12.27l3.83-2.3h9.97l8.44,9.97l3.84,14.57l4.6,5.37h3.84
	v6.91c0,0,9.97,9.2,10.73,9.2c0.77,0,6.91-6.9,6.91-6.9l3.07,3.07l-7.67,45.25l-4.61,9.21l-8.43,2.3l-1.54,9.21l-6.16,6.85h-0.01
	l-0.73,0.82l2.88,5.03l0.19,0.34l3.83,2.3v3.83l-3.83,3.84l1.53,3.07l3.84,5.37l6.13,3.06v11.51l7.74,4.3l6.07,3.37l4.21-0.7
	l0.39-0.07l3.07-8.43c0,0,7.67-1.54,8.44-0.77s13.04,6.14,16.87,11.51c3.84-2.31,18.41-17.65,18.41-17.65l3.84-7.67l12.27,1.54
	l10.74-0.77l13.81,9.97l13.81,0.77l2.3-6.91l13.04,6.91l-3.07,17.64l-10.74-0.77l0.77,8.44l-3.84,4.6l1.54,9.21l8.43,3.83
	l-3.83,3.84l6.14,9.97l-1.54,23.01l18.41,13.04l-3.07,9.21l-9.2,4.6l0.76,6.91l-7.67,7.67l0.77,23.01l-4.6,5.37l8.44,8.44
	l-8.44,12.27l-6.91,1.53v9.21l-12.27,6.13l-1.53,7.68l-7.67,7.67l0.38,0.88l4.03,9.42v0.01l0.19,0.43l16.11,6.13l-5.37,15.34
	l3.07,6.91l4.6,0.76l-0.77,4.61l-4.6,12.27l4.6,9.2l-10.74,13.05l-0.76,7.67l-16.11,12.27l1.53,8.44l-4.6,2.3l0.77,7.67l-4.61,2.3
	l0.07,0.4l0.7,4.2l0.49,0.1l3.35,0.67v6.9l-6.81,21.94l-0.1,0.31h6.91l8.43,11.5h6.91l1.53,4.61h5.37l2.3,3.83l0.79-0.26l1.51-0.5
	l0.77-6.14l2.3-0.77l0.77-4.6c0,0,5.37-1.53,6.14-1.53c0.76,0,13.04-16.11,13.04-16.11l0.76-5.37h4.61l8.43-7.67l3.84,0.76
	l13.04-12.27l1.53,6.14l3.84-7.67c0,0,7.67,0,8.44-0.77c0.76-0.77-3.07-7.67-3.07-7.67l4.6-8.44l2.3,3.84l6.14-8.44l16.87-2.3
	l9.21-29.15l6.59,3.3l8.75,4.37l6.9-0.77l8.44-13.81l12.28-7.67v-8.43l6.9-3.07h7.67l1.53,2.3l8.44,1.53v8.44l0.93,0.82l18.25,16.06
	l9.97,1.53l15.34,13.04l29.15,3.84v9.2l-5.37,10.74h7.67l6.91,6.9l4.6-3.83l-3.07-6.14l7.67-3.83l6.14-3.84l2.3-6.14l29.15-13.04
	l11.5,6.14l9.98-7.67v-15.34l12.27-13.04l3.83-15.34l22.12-7.62l0.13-0.05l-1.9-2.06l-7.3-7.92l9.2-12.27l18.41-3.07l10.74,5.37
	l19.94,0.77c0,0,14.58,12.27,16.88,12.27s23.78,1.54,23.78,1.54s0.77,9.2,3.07,9.2c2.3,0,17.64-7.67,17.64-7.67l19.94,18.41
	c0,0-1.53,9.97,8.44,21.48c1.35,1.56,2.65,3.06,3.88,4.49c7.84,9.14,13,15.45,13,15.45s0.27,0.82,0.73,2.16
	c2.08,6.1,7.98,23.02,9.24,22.39c1.53-0.77,13.81,6.9,13.81,6.9l17.64,27.62l41.42,25.31c0,0,13.04,18.41,14.58,19.94
	c1.47,1.48,1.53,39.73,1.53,42.77c0,0.13-0.03,0.25-0.08,0.37l-12.96,27.44l0.46,2.14l5.68,26.24l-5.37,4.6l0.13,0.44l6,20.27
	l-5.37,20.71v8.44l16.11,13.81l9.21,19.17l6.98,5.82l8.43,7.03l7.6,6.33c0,0,1.53,9.21,0,11.51c-1.15,1.74,2.05,8.72,3.7,12.04
	c0.53,1.08,0.9,1.77,0.9,1.77l0.78,0.19l62.89,15.15c0,0,2.3,3.83,0,4.6c-2.3,0.77-10.74,0-10.74,0l-3.84,12.27l7.68,19.18
	l6.13,3.07l3.07,7.67h4.6l8.44-3.07l14.58,6.9l5.36,11.51L3710.31,1598.58z"/>
<g>
	<path class="st1" d="M2165.83,2164.46c2.95-2.95,0-29.53,0-29.53l-17.72,2.95l-11.81,5.91l-11.81-20.67c0,0-14.76-2.95-17.72-2.95
		c-2.95,0-2.95-23.62-5.91-26.58c-2.95-2.95-17.72-23.62-17.72-23.62l-8.86,14.76l8.86,20.67l-14.76,38.39l14.76,29.53l-14.76,38.39
		l8.86,29.53v59.06l5.91,14.76c0,0,2.95,20.67,5.91,20.67c2.95,0,11.81,0,14.76,0c2.95,0,14.76-32.48,14.76-32.48l59.06-35.43
		c0,0-26.58-44.29-26.58-50.2C2151.07,2211.71,2162.88,2167.41,2165.83,2164.46z"/>
	<polygon class="st1" points="3217.04,1166.4 3181.6,1181.17 3160.93,1166.4 3128.45,1175.26 3119.59,1222.51 3134.36,1231.36 
		3131.41,1275.66 3169.79,1278.61 3214.09,1237.27 3205.23,1216.6 3228.85,1184.12 	"/>
	<path class="st1" d="M3219.99,1077.82l-8.86-41.34h-56.1l-14.76,20.67l17.72,35.43c0,0,41.34,11.81,44.29,11.81
		S3219.99,1077.82,3219.99,1077.82z"/>
	<path class="st1" d="M2236.7,2129.03v32.48l29.53,26.58v14.76l-8.86,11.81l5.91,26.58l8.86,5.91c2.95,0,8.86-8.86,8.86-8.86v-67.92
		l-8.86-14.76L2236.7,2129.03z"/>
	<polygon class="st1" points="2280.99,2096.55 2269.18,2114.26 2269.18,2123.12 2286.9,2123.12 2292.8,2096.55 2286.9,2090.64 	"/>
	<path class="st1" d="M2552.65,2427.26l2.95,41.34l20.67,53.15l11.81,5.91l8.86-20.67l-17.72-32.48v-11.81l26.58-14.76l2.95-41.34
		c0,0-38.39-8.86-41.34-8.86L2552.65,2427.26z"/>
	<path class="st1" d="M2496.55,2300.29l11.81,2.95v8.86c0,0,8.86,5.91,11.81,5.91c2.95,0,2.95-20.67,2.95-20.67
		s-14.76-5.91-17.72-8.86C2502.45,2285.53,2496.55,2300.29,2496.55,2300.29z"/>
	<polygon class="st1" points="2059.53,1520.74 2080.2,1526.65 2103.82,1491.21 2083.15,1446.92 2059.53,1443.97 	"/>
	<path class="st1" d="M2092.01,1376.05c0,0-26.58,26.58-26.58,29.53c0,2.95,0,20.67,0,20.67l11.81,2.95l8.86-17.72L2092.01,1376.05z
		"/>
</g>
<path class="st1" d="M2474.3,633.93l11.55,15.4v23.1l-23.1,26.95v26.95l-19.25,38.49l3.85,26.95l-11.55,38.49l-15.4,15.4v7.7h23.1
	l15.4,11.55v19.25l-42.34,23.1l-7.7,23.1h-19.25l-26.95,7.7l-26.95,57.74l-50.04,53.89l15.4,34.65l-3.85,34.65l21.94,12.36
	l37.65,21.17l2,1.12l11.55,38.49l-23.1,23.1l-3.85,19.25l-26.95,19.25l-23.1,19.25v19.25l15.4,11.55v23.1h-30.8l-15.4-15.4h-23.1
	l-24.25,33.34l-6.54,9.01l-31.87-3.54l-2.77-0.31l3.85-19.25l-15.4-7.7l-23.17,2.58l13.55-29.53l18.86-41.04l-5.89-41.34l20.67-26.6
	l20.63,26.6l32.49-17.75l8.85-32.45l-50.2-20.67l33.11-40.19l8.24-10.01v-26.6l-17.71-20.67l17.71-14.74l-2.93-14.78l-8.89-26.56
	l41.34-47.23l-11.82-41.34l50.24-82.69l-2.96-29.53l29.53-26.6l41.34-123.99c0,0,35.42-56.13,38.38-56.13c2.96,0,0-32.49,0-32.49
	l-11.82-17.71l2.96-20.67l-20.67-20.67l5.89-38.38l47.27-62.01l15.36-1.27l13.74,22.13l-7.7,26.95l19.25,11.55l15.4,46.19
	l-3.85,23.1l11.55,26.95l-50.04,50.04l3.85,30.8L2474.3,633.93z"/>
<path class="st1" d="M2853.82,316l-8.85,17.71l-23.6-2.96l-14.78,14.78l-14.74,67.9l-26.6,47.23h-26.56l-17.71,23.64l-11.82,62.01
	l-47.27,26.56l26.6,26.6v14.74l20.67,20.67c0,0,0,29.53-2.96,29.53c-2.96,0-32.49,0-32.49,0l-11.82-11.82l-38.38,2.96v32.49
	l-8.85,11.82l14.78,23.6h17.71l23.64,26.6l-47.27,73.79v29.53l23.64,17.75l-17.71,44.27l5.89,94.5l-11.82,8.85v44.31l9.12,28.95
	h-69.79l-23.1,3.85l-26.95,15.4l-26.95-7.7l-23.1-26.95h-26.95l-15.4,19.25h-26.95l-19.25,15.4v30.8l-17.4,10.43l-37.65-21.17
	l-21.94-12.36l3.85-34.65l-15.4-34.65l50.04-53.89l26.95-57.74l26.95-7.7h19.25l7.7-23.1l42.34-23.1V864.9l-15.4-11.55h-23.1v-7.7
	l15.4-15.4l11.55-38.49l-3.85-26.95l19.25-38.49v-26.95l23.1-26.95v-23.1l-11.55-15.4l-19.25-7.7l-3.85-30.8l50.04-50.04
	l-11.55-26.95l3.85-23.1l-15.4-46.19l-19.25-11.55l7.7-26.95l-13.74-22.13l20.06-1.65l5.93-26.6l20.67,8.85l38.38-29.53
	l-14.78-29.53l20.67-47.23l20.67,20.67l23.64-14.78l5.89-29.53l30.45-16.21v22.13c0,3.85,76.99,42.34,76.99,42.34l57.74-11.55
	l23.1,11.55l30.8-11.55l35.92-39.19l-1.04,26.1l-8.85,26.56L2853.82,316z"/>
<path class="st1" d="M2339.57,1796.47l-15.4,69.29l-5.43,4.54l-17.67,14.71l11.55,23.1l-11.2,20.13h-23.4l-20.67,32.49l-6.04,1.81
	l-82.53,24.75l14.78,17.71l-2.96,23.64l11.82,23.64l-23.64,35.42l-20.67-5.89l-20.67,11.82l-14.74-32.49l-41.34-14.78v-53.12
	l-44.31-153.55l26.6,20.67l5.89-8.85l-20.67-32.49v-56.13l29.53-126.96l-14.74-32.49l17.71-64.94l44.31,32.45h20.63v-23.6
	l-32.45-23.64c0,0,23.6-38.38,20.67-44.31c-2.96-5.89-23.64-38.38-23.64-38.38l5.89-26.56l29.53-11.82l-14.74-38.38l17.78-38.69
	l23.17-2.58l15.4,7.7l-3.85,19.25l2.77,0.31l31.87,3.54l6.54-9.01l8.85,16.71l-3.85,34.65l-23.1,34.65l-7.7,42.34l11.55,30.8
	l-15.4,15.4l15.4,42.34l-34.65,19.25l7.7,46.19l53.89,19.25l11.55,30.8l30.8,7.7l-11.55,57.74l-30.8,30.8l19.25,19.25h23.1
	l26.95-15.4h23.1L2339.57,1796.47z"/>
<path class="st1" d="M2797.66,2204.51l-19.25,42.34l-4.81,1.73l-43.73,15.59l-5.35,1.92l11.55,23.1l-23.1,23.1l15.4,30.8v53.89
	l-19.44,17.01l-11.59-16.24l-22.87-4.58l-6.66-1.35l-38.38-35.41l-2.96-32.49l-11.82,5.89c0,0-14.74,44.31-17.71,47.27
	c-2.96,2.92-35.45,0-38.38-2.96c-2.96-2.96-14.78-47.23-11.82-50.2c0.23-0.23,0.58-0.81,1.08-1.58l-12.9-30.91c0,0,0-17.71,0-20.67
	c0-2.96,14.78,0,14.78,0v23.64l9.05,6.77c8.2-16.67,17.51-36.3,17.51-36.3l11.82-38.42l-11.82-5.89l-17.71,35.45l-29.53-23.64
	l-26.6-2.96l5.93-53.16l-38.42-11.78l-35.42,23.6l-20.67-20.67l-23.64-2.92l-14.74-20.67v-82.69l-20.67-20.67l-20.67-59.05
	l-17.71,26.56l-20.67-2.96v-38.38l26.56-20.67l-20.67-17.71h-0.23l11.2-20.13l-11.55-23.1l17.67-14.71l5.43-4.54l15.4-69.29
	l-4.04-4.04l15.59-11.36l15.4-11.55l26.95,11.55l26.95-19.25l42.34,7.7l7.7,46.19l19.25,11.55v96.24l73.14,50.04h65.44l53.89,34.65
	l25.21-6.31l5.58-1.39l34.65,30.8l-23.1,26.95l7.7,19.25l-19.25,15.4l3.85,30.8c0,0,57.74-3.85,61.59,0
	C2782.26,2127.52,2797.66,2204.51,2797.66,2204.51z"/>
<path class="st1" d="M3013.23,1430.77l-23.1,19.25l7.7,26.95l30.8,7.7v30.8l-26.95,11.55l-3.85,42.34l-30.8,30.8l-57.74,7.7
	l-19.25,26.95l-11.55,46.19l-11.55,57.74l-38.49,50.04l-3.85,38.49l-34.65,15.4l-11.55,34.65l-69.29,23.1l-26.95,53.89l25.21,47.58
	l-25.21,6.31l-53.89-34.65h-65.44l-73.14-50.04v-96.24l-19.25-11.55l-7.7-46.19l-42.34-7.7l-26.95,19.25l-26.95-11.55l-15.4,11.55
	l-15.59,11.36l-15.21-15.21h-23.1l-26.95,15.4h-23.1l-19.25-19.25l30.8-30.8l11.55-57.74l-30.8-7.7l-11.55-30.8l-53.89-19.25
	l-7.7-46.19l34.65-19.25l-15.4-42.34l15.4-15.4l-11.55-30.8l7.7-42.34l23.1-34.65l3.85-34.65l-8.85-16.71l24.25-33.34h23.1
	l15.4,15.4h30.8v-23.1l-15.4-11.55v-19.25l23.1-19.25l26.95-19.25l3.85-19.25l23.1-23.1l-11.55-38.49l-2-1.12l17.4-10.43v-30.8
	l19.25-15.4h26.95l15.4-19.25h26.95l23.1,26.95l26.95,7.7l26.95-15.4l23.1-3.85h69.79l8.58,27.14l35.45,59.05l2.96,53.16
	l47.23,53.16c0,0-41.34,20.67-44.31,29.53c-2.93,8.85-17.71,35.41-17.71,35.41l20.67,38.38l14.78,11.82l56.09,8.85l2.96,23.64
	l32.49-23.64c0,0,23.6,8.89,29.53,11.82c5.89,2.96,38.38-20.67,38.38-20.67l8.85-32.45l20.67-2.96l14.74,11.82l11.82-3.39l8.85-2.54
	l35.45-26.56h59.05l9.43,5.66v27.64l-15.4,11.55V1430.77z"/>
<path class="st1" d="M3128.71,2701.09l15.4,38.49l-26.95-11.55c0,0-12.4,12.4-29.18,25.44c-15.59,12.09-34.95,24.75-51.66,28.45
	c-19.82,4.39-37.15,0-48.31-4.58l19.36-19.36l-44.27-5.93l-4.62-7.89l-24.91-42.31l-2.96,26.6l-20.67,11.82l-44.31-67.94
	c0,0-11.82-23.6-14.74-23.6c-2.96,0-47.27-5.93-47.27-5.93s-41.3-44.27-44.27-47.23c-2.96-2.96-8.85-64.98-8.85-64.98l-29.53-38.38
	v-32.49l-8.89-41.34l-3.16-4.39l19.44-17.01v-53.89l-15.4-30.8l23.1-23.1l-11.55-23.1l5.35-1.92l43.73-15.59l16.36,9.82l7.7,30.8
	h73.14c0,0,7.7-23.1,11.55-30.8c3.85-7.7,53.89-53.89,53.89-53.89l30.8,3.85l26.95-3.85l19.25,19.25l-11.55,19.25v53.89l4.39,10.7
	l22.56,54.74v34.65l23.1,7.7l7.7,23.1l-19.25,15.4l3.85,38.49l26.95,23.1v26.95l34.65,100.09l23.1,15.4l15.4,26.95L3128.71,2701.09z
	"/>
<path class="st1" d="M3385.32,2252.9l-44.88,13.2l-46.19,30.8h-57.74l-23.1,15.4l-76.99-23.1h-26.95l-53.89-11.55l-26.95,26.95
	l-22.56,3l-4.39-10.7V2243l11.55-19.25l-19.25-19.25l-26.95,3.85l-30.8-3.85c0,0-50.04,46.19-53.89,53.89
	c-3.85,7.7-11.55,30.8-11.55,30.8h-73.14l-7.7-30.8l-16.36-9.82l4.81-1.73l19.25-42.34c0,0-15.4-76.99-19.25-80.84
	c-3.85-3.85-61.59,0-61.59,0l-3.85-30.8l19.25-15.4l-7.7-19.25l23.1-26.95l-34.65-30.8l-5.58,1.39l-25.21-47.58l26.95-53.89
	l69.29-23.1l11.55-34.65l34.65-15.4l3.85-38.49l38.49-50.04l11.55-57.74l11.55-46.19l19.25-26.95l57.74-7.7l30.8-30.8l3.85-42.34
	l26.95-11.55v-30.8l-30.8-7.7l-7.7-26.95l23.1-19.25v-42.34l15.4-11.55v-27.64l5.35,3.19h26.56l26.56,50.2l2.96,50.2l26.56,50.2
	l-2.93,118.1l8.85,11.82l11.82,94.5l2.93,64.94l47.27,44.31l35.42,79.72l38.38,23.64H3282l8.85-53.16l23.64,29.53l32.49,112.21
	l20.67,118.1l13.47,80.88L3385.32,2252.9z"/>
<path class="st1" d="M3298.09,2982.1l15.4,23.1v20.48c-7.62-7.58-16.71-16.71-16.71-16.71l-15.59,13.63l-8.05,7.04l8.85,8.85v23.64
	l-8.85,11.82l11.82,32.45l-14.78,2.96l-2.93,64.98l-11.82,47.23l-20.67-76.76l8.85-17.75l-5.93-2.93h-17.71l-14.74,8.85
	l-23.64-11.82l-8.85-20.67v-23.64l-26.56-20.67l-17.75-2.93l-11.82-38.42l-29.53-2.93l-56.09-56.13l-11.82-26.56l-26.56-5.89
	l-17.75-32.49l-14.74-85.65l27.87-27.87c11.16,4.58,28.49,8.97,48.31,4.58c16.71-3.7,36.07-16.36,51.66-28.45
	c16.78-13.05,29.18-25.44,29.18-25.44l26.95,11.55l17.67,35.34l5.43,10.86l19.25,11.55l23.52-13.43l3.43-1.96v50.04l15.4,26.95
	v19.25l30.8,34.65c0,0,38.49,0,42.34,0c3.85,0,19.25,26.95,19.25,26.95L3298.09,2982.1z"/>
<path class="st1" d="M3448.22,2662.6l-11.55,30.8l-19.25-30.8l-11.55,7.7l-26.95,50.04l-69.29,19.25l-38.49,23.1l-26.95-3.85
	l-26.95,11.55l-7.28,13.51l-23.52,13.43l-19.25-11.55l-5.43-10.86l-17.67-35.34l-15.4-38.49l15.4-26.95l-15.4-26.95l-23.1-15.4
	l-34.65-100.09v-26.95l-26.95-23.1l-3.85-38.49l19.25-15.4l-7.7-23.1l-23.1-7.7v-34.65l-22.56-54.74l22.56-3l26.95-26.95
	l53.89,11.55h26.95l76.99,23.1l23.1-15.4h50.04l15.4,26.95v23.1l19.25,30.8l7.7,73.14c0,0-11.55,46.19-7.7,50.04
	c3.85,3.85,19.25,38.49,23.1,38.49c3.85,0,30.8,0,30.8,0l30.8-19.25l19.25,19.25l-7.7,42.34l15.4,11.55L3448.22,2662.6z"/>
<path class="st1" d="M3890.91,3112.98l-1.27,3.12l-14.13,35.38l-26.95,23.1l3.85,26.95l-46.19-3.85l-30.8,23.1l-3.85,26.95
	l11.55,23.1v25.87l-16.86,25.29h-26.56l-14.78-14.74l-14.74,14.74l-23.64-126.96l-23.64-14.78h-14.74l-7.58-22.71l-1.27-3.85
	l-20.67,23.6l-29.53,14.78l-14.78-2.96l-41.34-26.56l-38.38-2.96l-11.82-17.71h-59.05l-17.71-5.93l-44.31-47.23l14.78-8.85
	l-2.96-32.49l-14.78-2.93l-5.89-26.6h-23.64c0,0-2.93,20.67-5.89,17.71c-1.12-1.12-5.2-5.2-9.85-9.85v-20.48l-15.4-23.1l23.1-42.34
	c0,0-15.4-26.95-19.25-26.95c-3.85,0-42.34,0-42.34,0l-30.8-34.65v-19.25l-15.4-26.95v-50.04l-3.43,1.96l7.28-13.51l26.95-11.55
	l26.95,3.85l38.49-23.1l69.29-19.25l26.95-50.04l11.55-7.7l19.25,30.8l11.55-30.8l-15.4-69.29l-15.4-11.55l7.7-42.34l-19.25-19.25
	l-30.8,19.25c0,0-26.95,0-30.8,0c-3.85,0-19.25-34.65-23.1-38.49c-3.85-3.85,7.7-50.04,7.7-50.04l-7.7-73.14l-19.25-30.8v-23.1
	l-15.4-26.95h7.7l46.19-30.8l44.88-13.2l5.93,35.57l53.16,203.75l35.42,103.36l29.56,67.91l14.74,17.71h11.82l23.64,23.64
	l32.45,56.13l44.31,64.94l50.2,41.34h29.53l41.34,32.49c0,0,25.33,13.32,42.84,22.98c0.58,0.35,1.15,0.65,1.73,1
	c1.31,0.69,2.54,1.39,3.7,2.04c1.77,1,3.39,1.92,4.81,2.73c3.27,1.85,5.47,3.23,5.97,3.73c1.81,1.77,38.15,1.39,66.56,0.85
	l-30.6,33.64v30.8l-19.25,30.8l30.8,26.95v26.95L3890.91,3112.98z"/>
<path class="st1" d="M4492.65,3342.64l2.96,29.53l-5.89,38.38c0,0-17.75,26.6-23.64,26.6c-5.93,0-47.23,29.53-50.2,35.42
	c-2.96,5.93-20.67,56.13-20.67,56.13l14.74,23.6c0,0-8.85,26.6-17.71,26.6s-23.6-2.96-23.6,0c0,2.93-2.96,32.45-5.93,32.45
	c-2.96,0-29.53-2.93-26.56,0c2.93,2.96-2.96,35.45-2.96,35.45l-44.31-41.34l-20.67,2.96l-8.85,8.85l-2.93,14.74
	c0,0-11.82,2.96-11.82,0c0-2.93,2.96-17.71,0-17.71s-17.71-23.64-17.71-23.64l-2.96-35.41l-23.64-2.96v-20.67l-10.36-6.47
	l-13.24-8.28l-38.42,17.71l-4.89,5.58v-53.78l-30.8-61.59l-42.34-23.1v-57.74l23.1-30.8l-3.85-53.89l11.55-50.04l76.99-15.4
	l34.65-26.95l-6.74-15.71l10.59-3.54l-7.7-42.34l30.8-3.85c0,0,26.95,38.49,30.8,38.49c1.77,0,14.05-0.81,26.87-1.69l16.36,27.25
	l32.49,26.56l19.29,9.62l16.13,8.08l23.64,32.49l41.34,38.38h14.74l17.75,17.71l32.45,23.64L4492.65,3342.64z"/>
<path class="st1" d="M4287.32,3138.23c-12.82,0.89-25.1,1.69-26.87,1.69c-3.85,0-30.8-38.49-30.8-38.49l-30.8,3.85l7.7,42.34
	l-10.59,3.54l-12.51,4.16l-23.1-7.7l-11.55-26.95l-34.65,15.4l-30.8-3.85l-46.19,23.1l-26.95-26.95v-53.89l-50.04,53.89
	l-70.56-12.28l1.27-3.12l-26.95-30.8v-26.95l-30.8-26.95l19.25-30.8v-30.8l30.6-33.64c18.59-0.39,33.84-0.85,33.84-0.85l41.34-29.52
	h26.6l35.42,17.71l11.82-17.71h29.53l11.82,8.85l53.12,5.89l38.42,14.78l47.23,85.61l14.4,22.71l41.69,65.86L4287.32,3138.23z"/>
<path class="st1" d="M4091.08,3209.22l-11.55,50.04l3.85,53.89l-23.1,30.8v57.74l42.34,23.1l30.8,61.59v53.78l-15.78,18.05
	l-64.94,2.93l-29.53,41.34l-53.16-2.93c0,0,0,14.74,0,17.71s-5.89,5.89-5.89,5.89v53.16h-14.78l-5.89,5.89l-2.96,14.78h-17.71
	l-5.93,8.85h-5.89l-17.71,20.67l-5.93-29.53l-41.34-59.05l-23.6,2.92l-26.6-29.52v-17.71l20.67-11.82l2.96-44.27l41.34-2.96
	l23.6-44.31l-14.74-11.78v-47.27h8.85l2.96-26.56l-35.45-17.71l-2.93-11.82l23.6-14.78l17.71-8.85l-8.85-38.38l-23.6-5.89h-14.78
	l-20.67,14.74l-32.49-26.56l-0.85,1.27v-25.87l-11.55-23.1l3.85-26.95l30.8-23.1l46.19,3.85l-3.85-26.95l26.95-23.1l14.13-35.38
	l70.56,12.28l50.04-53.89v53.89l26.95,26.95l46.19-23.1l30.8,3.85l34.65-15.4l11.55,26.95l23.1,7.7l12.51-4.16l6.74,15.71
	l-34.65,26.95L4091.08,3209.22z"/>
</svg>
